<svg xmlns="http://www.w3.org/2000/svg" width="40" height="40" fill="none" xmlns:v="https://vecta.io/nano"><path fill-rule="evenodd" d="M14.944 0c-3.559 0-6.445 2.886-6.445 6.445v1.253c-2.141-.559-4.515 0-6.193 1.678-2.517 2.517-2.517 6.598 0 9.115l.886.886C1.283 20.496 0 22.569 0 24.942c0 3.559 2.886 6.445 6.445 6.445h1.253c-.559 2.141 0 4.515 1.678 6.193 2.517 2.517 6.598 2.517 9.115 0l2.644-2.644c2.332-2.332 3.421-5.437 3.268-8.49l4.063 4.063c2.517 2.517 6.598 2.517 9.115 0s2.517-6.598 0-9.114l-.886-.886c1.909-1.119 3.192-3.192 3.192-5.565 0-3.559-2.886-6.445-6.445-6.445h-1.254c.56-2.141 0-4.515-1.678-6.193-2.517-2.517-6.597-2.517-9.114 0L18.752 4.95c-2.332 2.332-3.421 5.436-3.268 8.49l-4.063-4.063-.03-.03V6.445c0-1.963 1.591-3.554 3.554-3.554 1.594 0 2.943 1.05 3.393 2.495l.415-.437 1.757-1.757C19.39 1.283 17.317 0 14.944 0zM30.54 11.39l-.03.03-4.063 4.063c2.866-.144 5.778.807 8.053 2.853 1.446-.45 2.496-1.799 2.496-3.393 0-1.963-1.591-3.554-3.554-3.554H30.54zM9.346 28.496l.03-.03 4.063-4.063c-2.866.144-5.778-.807-8.053-2.853-1.446.45-2.496 1.799-2.496 3.393 0 1.963 1.591 3.554 3.554 3.554h2.901zm15.596 11.39c-2.373 0-4.447-1.283-5.565-3.193l1.757-1.757.415-.437c.45 1.446 1.799 2.496 3.393 2.496 1.963 0 3.554-1.591 3.554-3.554V30.54c.833.822 1.834 1.371 2.891 1.647v1.254c0 3.559-2.886 6.445-6.445 6.445zm3.523-35.535c-1.388-1.388-3.638-1.388-5.026 0l-2.644 2.644c-2.673 2.673-3.145 6.715-1.416 9.871.293.534 1.011.585 1.442.154l7.644-7.644c1.388-1.388 1.388-3.638 0-5.026zm7.07 24.115c1.388-1.388 1.388-3.638 0-5.026l-2.643-2.644c-2.673-2.673-6.715-3.145-9.871-1.416-.534.293-.585 1.011-.154 1.442l7.644 7.644c1.388 1.388 3.638 1.388 5.025 0zm-19.089 7.07c-1.388 1.388-3.638 1.388-5.026 0s-1.388-3.638 0-5.026l7.644-7.644c.431-.431 1.149-.38 1.442.154 1.729 3.157 1.257 7.198-1.416 9.871l-2.644 2.644zM4.351 11.421c-1.388 1.388-1.388 3.638 0 5.026l2.644 2.644c2.673 2.673 6.715 3.145 9.871 1.416.534-.293.585-1.011.154-1.442l-7.644-7.644c-1.388-1.388-3.638-1.388-5.026 0z" fill="url(#A)"/><defs><radialGradient id="A" cx="0" cy="0" r="1" gradientUnits="userSpaceOnUse" gradientTransform="translate(19.943 19.943) rotate(90) scale(19.943 19.943)"><stop offset=".495" stop-color="#6366f1"/><stop offset="1" stop-color="#8b8df5"/></radialGradient></defs></svg>