<svg xmlns="http://www.w3.org/2000/svg" width="512" height="512" fill="none" xmlns:v="https://vecta.io/nano"><rect width="512" height="512" rx="100" fill="url(#A)"/><path d="M83.114 248.144C116.067 191.694 181.303 153.5 256 153.5s139.952 38.22 172.886 94.649c1.39 2.415 2.114 5.082 2.114 7.787s-.724 5.372-2.114 7.786c-32.953 56.451-98.189 94.644-172.886 94.644s-139.952-38.22-172.886-94.649c-1.39-2.414-2.114-5.081-2.114-7.786s.724-5.373 2.114-7.787zM256 332.758c17.306 0 34.223-4.506 48.613-12.947s25.604-20.44 32.227-34.478 8.355-29.485 4.979-44.388-11.71-28.591-23.947-39.335-27.828-18.061-44.802-21.026-34.566-1.442-50.555 4.372-29.654 15.662-39.269 28.296-14.746 27.487-14.746 42.681c-.006 10.09 2.254 20.083 6.649 29.406s10.84 17.794 18.967 24.929 17.774 12.793 28.393 16.652 21.999 5.843 33.491 5.838zm0-128.041c5.207.063 10.38.744 15.379 2.022-4.121 4.917-6.098 10.968-5.574 17.055s3.517 11.809 8.433 16.126 11.433 6.944 18.367 7.404 13.825-1.275 19.425-4.894c3.19 10.316 2.614 21.25-1.646 31.264s-11.988 18.602-22.098 24.557-22.092 8.976-34.261 8.638-23.909-4.016-33.571-10.52-16.758-15.503-20.289-25.732-3.32-21.174.605-31.293 11.364-18.902 21.271-25.113 21.785-9.54 33.959-9.514zm59.928 238.239V465.5h-13.184v-63.984h24.961c4.805 0 9.024.879 12.656 2.636 3.662 1.758 6.475 4.263 8.438 7.515 1.963 3.223 2.944 6.899 2.944 11.03 0 6.27-2.153 11.221-6.46 14.854-4.277 3.603-10.21 5.405-17.798 5.405h-11.557zm0-10.679h11.777c3.486 0 6.138-.82 7.954-2.461 1.846-1.64 2.769-3.984 2.769-7.031 0-3.135-.923-5.669-2.769-7.602s-4.394-2.93-7.646-2.989h-12.085v20.083zM360.84 465.5v-63.984h19.687c5.625 0 10.65 1.274 15.074 3.823 4.453 2.519 7.924 6.123 10.415 10.81 2.49 4.659 3.735 9.961 3.735 15.909v2.944c0 5.947-1.23 11.235-3.691 15.864-2.432 4.629-5.874 8.218-10.328 10.767s-9.477 3.838-15.073 3.867H360.84zm13.183-53.306v42.715h6.373c5.156 0 9.096-1.684 11.821-5.054s4.116-8.188 4.175-14.458v-3.383c0-6.504-1.348-11.426-4.043-14.766-2.696-3.369-6.636-5.054-11.822-5.054h-6.504zm83.848 27.159h-25.312V465.5h-13.184v-63.984h41.66v10.678h-28.476v16.524h25.312v10.635z" fill="#fff"/><defs><radialGradient id="A" cx="0" cy="0" r="1" gradientUnits="userSpaceOnUse" gradientTransform="rotate(135 256 106.039) scale(724.077)"><stop stop-color="#e53935"/></radialGradient></defs></svg>